<svg id="Ebene_1" data-name="Ebene 1" xmlns="http://www.w3.org/2000/svg" xmlns:xlink="http://www.w3.org/1999/xlink" viewBox="0 0 405.95 79"><defs><style>.cls-1{fill:#8ce400;}.cls-2{fill:#fff;}.cls-3{clip-path:url(#clip-path);}</style><clipPath id="clip-path"><path class="cls-1" d="M39.07,54,54.6,27H74l6.34,11H60.94l-3.11,5.41H80.34L73.09,56h0l-8.5,14.77H30.08l-6.34-11H58.19l3.1-5.41H38.84Zm-18.56.26-7.83-13.6.08-.13L30,10.79H64.6l6.34,11H36.3l-3,5.23H48.39L42.08,38H26.92L23.78,43.4H38.92l-6.31,11h-12ZM27,5.56,6.64,40.76,27,76H67.7L80.13,54.46h0l7.93-13.71L67.7,5.56Z"/></clipPath></defs><title>Zeichenfläche 1</title><polygon class="cls-2" points="107.09 27.09 126.15 27.09 126.15 32.36 113.14 32.36 113.14 38.1 124.2 38.1 124.2 43.37 113.14 43.37 113.14 49.15 126.15 49.15 126.15 54.42 107.09 54.42 107.09 27.09"/><path class="cls-2" d="M155.36,44.23v4.06a5.79,5.79,0,0,1-6.09,6.13h-9.18A5.8,5.8,0,0,1,134,48.29V45.83H140V48a1,1,0,0,0,1.17,1.17h7A1,1,0,0,0,149.31,48V44.54a1,1,0,0,0-1.17-1.17h-8.09A5.79,5.79,0,0,1,134,37.24v-4a5.79,5.79,0,0,1,6.09-6.13h9.18a5.8,5.8,0,0,1,6.13,6.13v2.46h-6.05V33.53a1,1,0,0,0-1.17-1.17h-7A1,1,0,0,0,140,33.53v3.4a1,1,0,0,0,1.17,1.17h8.08a5.79,5.79,0,0,1,6.09,6.13"/><path class="cls-2" d="M178.92,33.53a1,1,0,0,0-1.17-1.17H170v7.69h7.73a1,1,0,0,0,1.17-1.17Zm-.08,11.79H170v9.1H164V27.09h14.88A5.8,5.8,0,0,1,185,33.22v6a5.8,5.8,0,0,1-6.13,6.13"/><path class="cls-2" d="M208.13,33.53A1,1,0,0,0,207,32.36h-7.34a1,1,0,0,0-1.17,1.17V48a1,1,0,0,0,1.17,1.17H207A1,1,0,0,0,208.13,48Zm-.08,20.89h-9.57a5.79,5.79,0,0,1-6.09-6.13V33.22a5.79,5.79,0,0,1,6.09-6.13h9.57a5.8,5.8,0,0,1,6.13,6.13V48.29a5.8,5.8,0,0,1-6.13,6.13"/><path class="cls-2" d="M237.74,33.53a1,1,0,0,0-1.17-1.17h-7.73v7.69h7.73a1,1,0,0,0,1.17-1.17Zm1.76,11.56,4.3,9.33h-6.64l-3.91-9.1h-4.41v9.1h-6.05V27.09h14.88a5.8,5.8,0,0,1,6.13,6.13v6a5.73,5.73,0,0,1-4.3,5.9"/><polygon class="cls-2" points="248.48 27.09 270.39 27.09 270.39 32.36 262.46 32.36 262.46 54.42 256.4 54.42 256.4 32.36 248.48 32.36 248.48 27.09"/><path class="cls-2" d="M298,44.23v4.06a5.79,5.79,0,0,1-6.09,6.13h-9.18a5.8,5.8,0,0,1-6.13-6.13V45.83h6.05V48a1,1,0,0,0,1.17,1.17h7A1,1,0,0,0,292,48V44.54a1,1,0,0,0-1.17-1.17h-8.08a5.79,5.79,0,0,1-6.09-6.13v-4a5.79,5.79,0,0,1,6.09-6.13h9.18A5.8,5.8,0,0,1,298,33.22v2.46H292V33.53a1,1,0,0,0-1.17-1.17h-7a1,1,0,0,0-1.17,1.17v3.4a1,1,0,0,0,1.17,1.17h8.08A5.79,5.79,0,0,1,298,44.23"/><rect class="cls-2" x="306.63" y="47.98" width="6.44" height="6.44"/><polygon class="cls-2" points="327.72 38.22 327.72 54.42 321.67 54.42 321.67 27.09 327.33 27.09 337.41 43.29 337.41 27.09 343.46 27.09 343.46 54.42 337.8 54.42 327.72 38.22"/><polygon class="cls-2" points="352.05 27.09 371.11 27.09 371.11 32.36 358.11 32.36 358.11 38.1 369.16 38.1 369.16 43.37 358.11 43.37 358.11 49.15 371.11 49.15 371.11 54.42 352.05 54.42 352.05 27.09"/><polygon class="cls-2" points="376.58 27.09 398.49 27.09 398.49 32.36 390.56 32.36 390.56 54.42 384.51 54.42 384.51 32.36 376.58 32.36 376.58 27.09"/><path class="cls-1" d="M39.07,54,54.6,27H74l6.34,11H60.94l-3.11,5.41H80.34L73.09,56h0l-8.5,14.77H30.08l-6.34-11H58.19l3.1-5.41H38.84Zm-18.56.26-7.83-13.6.08-.13L30,10.79H64.6l6.34,11H36.3l-3,5.23H48.39L42.08,38H26.92L23.78,43.4H38.92l-6.31,11h-12ZM27,5.56,6.64,40.76,27,76H67.7L80.13,54.46h0l7.93-13.71L67.7,5.56Z"/><g class="cls-3"><rect class="cls-1" x="11.37" y="-0.61" width="71.96" height="82.75" transform="translate(5.69 87.32) rotate(-88.9)"/></g></svg>