<?xml version="1.0" encoding="UTF-8" standalone="no"?>
<!-- Generator: Adobe Illustrator 19.1.0, SVG Export Plug-In . SVG Version: 6.00 Build 0)  -->
<svg id="Layer_1" xmlns="http://www.w3.org/2000/svg" xml:space="preserve" viewBox="0 0 287 38" version="1.1" y="0px" x="0px" xmlns:xlink="http://www.w3.org/1999/xlink" enable-background="new 0 0 287 38">
	<g stroke-linejoin="round" fill="none" stroke-linecap="round" stroke-miterlimit="10" stroke-width="1.5">
		<g stroke="#086BBC">
				<line x1="270.7" y2="21.2" x2="278.5" y1="28.9"/>
				<line x1="280.7" y2="14.8" x2="284.9" y1="18.8"/>
		</g>
		<g stroke="#EDB107">
				<line x1="263.6" y2="12.5" x2="273.3" y1="21.8"/>
				<line x1="259.3" y2="24" x2="261.5" y1="26.1"/>
		</g>
		<g stroke="#DB236E">
				<line x1="263.3" y2="5.7" x2="272.5" y1="14.5"/>
				<line x1="260.5" y2="16.8" x2="260.9" y1="17.2"/>
		</g>
		<g stroke="#00B5A3">
				<line x1="258.3" y2="9.5" x2="283.2" y1="33.8"/>
				<line x1="285.4" y2="6.6" x2="286.3" y1="7.4"/>
		</g>
	</g>
		<path d="m174.4 38c-5 0-9.9-2-13.3-5.6-3.6-3.6-5.5-8.4-5.5-13.4s2-9.8 5.5-13.4c3.5-3.6 8.3-5.6 13.3-5.6 5.1 0 9.8 2 13.4 5.6s5.5 8.4 5.5 13.4-2 9.8-5.5 13.4c-3.6 3.6-8.3 5.6-13.4 5.6zm0-35.2c-4.3 0-8.3 1.7-11.3 4.8s-4.7 7.1-4.7 11.4 1.7 8.3 4.7 11.4c3 3.1 7.1 4.8 11.3 4.8 4.3 0 8.3-1.7 11.4-4.8 3-3.1 4.7-7.1 4.7-11.4s-1.7-8.3-4.7-11.4c-3-3.1-7.1-4.8-11.4-4.8z" fill="#C6C6C6"/>
			<path d="m12.8 1.5c7.5 0 11.4 5.9 11.4 11.7 0 5.9-3.8 11.7-11.4 11.7h-7.7v11.7h-5.1v-35h12.8zm0 18.3c4.2 0 6.4-3.3 6.4-6.6 0-3.4-2.1-6.7-6.4-6.7h-7.7v13.3h7.7z" fill="#fff"/>
			<path d="m64 1h-3.7l-12 30.4h-16.8v-29.9h-5v35h25.2c1.1-2.9 2.8-7.1 4.2-10.3h12.6l4.2 10.3h5.4l-14.1-35.5zm-6.2 20.4l4.4-12.4 4.3 12.4h-8.7z" fill="#fff"/>
			<path d="m129 18.7h5.9c4.2 0 6.4-3.1 6.4-6.1s-2.1-6.1-6.4-6.1h-7.8v29.9h-5v-35h12.8c7.6 0 11.4 5.6 11.4 11.2 0 5-3 9.7-9 10.7l11 13.2h-6.5l-12.8-15.4v-2.4z" fill="#fff"/>
			<g fill="#fff">
				<polygon points="101.7 1.5 98.5 1.5 95.7 1.5 86.1 16.9 76.6 1.5 70.6 1.5 83.6 22.2 83.6 36.5 88.7 36.5 88.7 22.2 98.5 6.5 98.5 6.6 119.9 6.6 119.9 1.5"/>
					<polygon points="119.5 21.5 119.5 16.4 103.6 16.4 98.5 16.4 98.5 21.5"/>
					<rect y="31.4" x="98.5" height="5.1" width="21.4"/>
			</g>
				<path d="m157.1 34c0 1.5-1.3 3.1-3.2 3.1-1.7 0-3-1.5-3-3.1 0-1.9 1.3-3.1 3-3.1 1.9 0 3.2 1.2 3.2 3.1z" fill="#fff"/>
		<polygon points="228.5 3.3 231.5 3.3 247.1 3.3 247.1 0.5 222.9 0.5 222.9 32.4 197.8 0.5 197.8 0.5 195 0.5 195 37.5 197.8 37.5 197.8 5 223.4 37.5 225.4 37.5 225.7 37.5 247.1 37.5 247.1 34.8 225.7 34.7 225.7 20.4 228.5 20.4 228.5 20.4 247.1 20.4 247.1 17.6 225.7 17.6 225.7 3.3" fill="#C6C6C6"/>
</svg>
